<svg xmlns="http://www.w3.org/2000/svg" data-name="Layer 1" viewBox="0 0 646 96"><defs><linearGradient id="b" x1="10.8" x2="98.9" y1="-.3" y2="99" gradientTransform="matrix(1 0 0 -1 0 98)" gradientUnits="userSpaceOnUse"><stop offset="0" stop-color="#9945ff"/><stop offset=".3" stop-color="#8752f3"/><stop offset=".5" stop-color="#5497d5"/><stop offset=".6" stop-color="#43b4ca"/><stop offset=".7" stop-color="#28e0b9"/><stop offset="1" stop-color="#19fb9b"/></linearGradient><clipPath id="a"><path fill="none" stroke-width="0" d="M0 0h646v96H0z"/></clipPath></defs><g clip-path="url(#a)"><path fill="url(#b)" d="m108.5 75.7-17.7 19c-.8.8-1.9 1.3-3 1.3h-84c-1.1 0-2.1-.9-2.1-2.1 0-.5.2-1 .5-1.4l17.7-19c.8-.8 1.9-1.3 3-1.3h84c1.1 0 2.1.9 2.1 2 0 .5-.2 1.1-.6 1.5zM90.8 37.4c-.8-.8-1.9-1.3-3-1.3h-84c-1.1 0-2.1.9-2.1 2.1 0 .5.2 1 .5 1.4l17.7 19c.8.8 1.9 1.3 3 1.3h84c1.1 0 2.1-.9 2-2.1 0-.5-.2-1-.5-1.4l-17.7-19zm-87-13.6h84c1.1 0 2.2-.5 3-1.3l17.7-19c.8-.8.7-2.1 0-2.9 0 0-.2-.2-.3-.2-.3-.2-.7-.3-1.1-.3H23c-1.1 0-2.2.5-3 1.3L2.3 20.3c-.8.8-.7 2.1.1 2.9.4.4.9.5 1.4.5z"/><path d="M210.9 40.6H166V25.8h56.6V11h-56.8c-8.2 0-14.8 6.5-14.8 14.7v15c0 8.2 6.7 14.7 14.8 14.7h45v14.8H152V85h58.9c6 0 11.4-3.5 13.7-9 .8-1.8 1.1-3.7 1.2-5.6v-15c0-8.2-6.7-14.7-14.8-14.7zM298 11h-45.1c-6 0-11.4 3.5-13.7 9-.8 1.8-1.1 3.7-1.2 5.7v44.6c0 1.9.4 3.9 1.2 5.7 2.3 5.5 7.7 9.1 13.7 9H298c8.2 0 14.8-6.5 14.8-14.7V25.7c0-3.9-1.6-7.7-4.4-10.4-2.8-2.8-6.5-4.3-10.5-4.3zm-.1 59.2H253V25.8h44.9v44.4zM456 11h-44c-8.2 0-14.8 6.5-14.8 14.7V85h15V60.7H456V85h15V25.7c0-8.2-6.7-14.7-14.8-14.7h-.1zm-.1 34.9h-43.8V25.8h43.8v20.1zM631.2 11h-44c-8.2 0-14.8 6.5-14.8 14.7V85h15V60.7h43.7V85h15V25.7c0-3.9-1.6-7.7-4.4-10.4-2.8-2.8-6.5-4.3-10.5-4.3zm-.2 34.9h-43.8V25.8H631v20.1zm-87 24.3h-6l-21.5-53c-1.5-3.7-5.1-6.2-9.2-6.2H494c-4 0-7.6 2.4-9.1 6-.5 1.2-.8 2.5-.8 3.8V85h15V25.8h6l21.4 53c1.5 3.7 5.2 6.2 9.2 6.2H549c2.6 0 5.1-1 7-2.8 1.9-1.8 2.9-4.3 2.9-6.9V11h-15v59.2zM341.1 11h-15v59.3c0 3.9 1.6 7.7 4.4 10.4 2.8 2.8 6.6 4.3 10.5 4.3h45V70.2h-44.9V11z"/></g></svg>